<svg width="23" height="23" viewBox="0 0 23 23" fill="none" xmlns="http://www.w3.org/2000/svg">
<path d="M11.6666 0.916664C5.60123 0.916664 0.666626 4.86456 0.666626 9.71666C0.666626 12.9155 2.75333 15.7843 6.16663 17.3441V22.9167L12.0406 18.5123C17.9333 18.3539 22.6666 14.4687 22.6666 9.71666C22.6666 4.86456 17.732 0.916664 11.6666 0.916664ZM8.91663 10.8167C8.47902 10.8167 8.05933 10.6428 7.7499 10.3334C7.44046 10.024 7.26663 9.60427 7.26663 9.16666C7.26663 8.72906 7.44046 8.30937 7.7499 7.99994C8.05933 7.6905 8.47902 7.51666 8.91663 7.51666C9.35423 7.51666 9.77392 7.6905 10.0834 7.99994C10.3928 8.30937 10.5666 8.72906 10.5666 9.16666C10.5666 9.60427 10.3928 10.024 10.0834 10.3334C9.77392 10.6428 9.35423 10.8167 8.91663 10.8167ZM14.4166 10.8167C13.979 10.8167 13.5593 10.6428 13.2499 10.3334C12.9405 10.024 12.7666 9.60427 12.7666 9.16666C12.7666 8.72906 12.9405 8.30937 13.2499 7.99994C13.5593 7.6905 13.979 7.51666 14.4166 7.51666C14.8542 7.51666 15.2739 7.6905 15.5834 7.99994C15.8928 8.30937 16.0666 8.72906 16.0666 9.16666C16.0666 9.60427 15.8928 10.024 15.5834 10.3334C15.2739 10.6428 14.8542 10.8167 14.4166 10.8167Z" fill="#3C3C3C" fill-opacity="0.9"/>
</svg>
