<svg width="16" height="6" viewBox="0 0 16 6" fill="none" xmlns="http://www.w3.org/2000/svg">
<path d="M8 0.5C6.96875 0.5 6.125 1.625 6.125 3C6.125 4.375 6.96875 5.5 8 5.5C9.03125 5.5 9.875 4.375 9.875 3C9.875 1.625 9.03125 0.5 8 0.5ZM13.625 0.5C12.5937 0.5 11.75 1.625 11.75 3C11.75 4.375 12.5937 5.5 13.625 5.5C14.6562 5.5 15.5 4.375 15.5 3C15.5 1.625 14.6562 0.5 13.625 0.5ZM2.375 0.5C1.34375 0.5 0.5 1.625 0.5 3C0.5 4.375 1.34375 5.5 2.375 5.5C3.40625 5.5 4.25 4.375 4.25 3C4.25 1.625 3.40625 0.5 2.375 0.5Z" fill="#3C3C3C" fill-opacity="0.9"/>
</svg>
