<svg width="23" height="23" viewBox="0 0 23 23" fill="none" xmlns="http://www.w3.org/2000/svg">
<path d="M20.7166 7.69737H14.5434L15.7787 3.79874C16.0009 3.09474 15.8887 2.31432 15.4762 1.71221C15.0637 1.11011 14.3949 0.75 13.6898 0.75H11.9166C11.5899 0.75 11.2808 0.902842 11.0707 1.16684L5.90073 7.69737H3.11663C1.90333 7.69737 0.916626 8.736 0.916626 10.0132V20.4342C0.916626 21.7114 1.90333 22.75 3.11663 22.75H17.7543C18.2019 22.7484 18.6385 22.6039 19.0064 22.3356C19.3742 22.0672 19.6561 21.6876 19.8146 21.2471L22.8473 12.7354C22.8934 12.6054 22.9168 12.4677 22.9166 12.3289V10.0132C22.9166 8.736 21.9299 7.69737 20.7166 7.69737ZM3.11663 10.0132H5.31663V20.4342H3.11663V10.0132ZM20.7166 12.1194L17.7543 20.4342H7.51663V9.27442L12.4314 3.06579H13.692L11.9738 8.48821C11.918 8.66226 11.9025 8.8478 11.9284 9.02944C11.9544 9.21108 12.0211 9.3836 12.1231 9.53268C12.225 9.68176 12.3592 9.80311 12.5146 9.88667C12.67 9.97023 12.8421 10.0136 13.0166 10.0132H20.7166V12.1194Z" fill="#3C3C3C" fill-opacity="0.9"/>
</svg>
