<svg width="36" height="37" viewBox="0 0 36 37" fill="none" xmlns="http://www.w3.org/2000/svg">
<path d="M18.0011 34.6493C27.0764 34.6493 34.4348 27.2962 34.4348 18.2239C34.4348 9.15163 27.0764 1.79852 18.0011 1.79852C8.92587 1.79852 1.5675 9.15163 1.5675 18.2239C1.5675 27.2962 8.92587 34.6493 18.0011 34.6493Z" fill="#2374E1" stroke="white" stroke-width="3"/>
<path d="M19.1499 11.9093C19.1499 11.2742 18.6365 10.7612 18.0011 10.7612C17.3657 10.7612 16.8524 11.2742 16.8524 11.9093V17.0758H11.683C11.0476 17.0758 10.5343 17.5888 10.5343 18.2239C10.5343 18.8589 11.0476 19.372 11.683 19.372H16.8524V24.5384C16.8524 25.1735 17.3657 25.6865 18.0011 25.6865C18.6365 25.6865 19.1499 25.1735 19.1499 24.5384V19.372H24.3192C24.9546 19.372 25.4679 18.8589 25.4679 18.2239C25.4679 17.5888 24.9546 17.0758 24.3192 17.0758H19.1499V11.9093Z" fill="white"/>
</svg>
